<mxfile host="app.diagrams.net" modified="2023-11-11T17:16:17.978Z" agent="Mozilla/5.0 (Windows NT 10.0; Win64; x64) AppleWebKit/537.36 (KHTML, like Gecko) Chrome/119.0.0.0 Safari/537.36" version="22.1.0" etag="P4LZv1A4r6DhC1tShIQg" type="github">
  <diagram name="PÃ¡gina-1" id="tx4bYeoT6V7-GzBvc4nT">
    <mxGraphModel>
      <root>
        <mxCell id="0" />
        <mxCell id="1" parent="0" />
      </root>
    </mxGraphModel>
  </diagram>
</mxfile>
